<?xml version="1.0" encoding="UTF-8"?><svg id="Layer_2" xmlns="http://www.w3.org/2000/svg" viewBox="0 0 963.66 1080"><defs><style>.cls-1{fill:#912010;}.cls-2{fill:#40bfb4;}</style></defs><path class="cls-2" d="M808.34,382.11c-123.32-164.43-26.32-263.16,78.95-210.53,0,0,0-131.58-184.21-131.58S282.02,118.95,282.02,118.95c0,0,81.68,65.41,45.59,178.41-63.5-49.56-155.71-45.19-214.09,13.19-47.41,47.41-73.52,110.67-73.52,178.12s26.11,130.71,73.52,178.12l53.76,53.76c5.55,108.67,51.56,217.16,141.05,319.44h473.68c184.21-210.53,184.21-447.37,26.32-657.89ZM174.36,615.98l-5.01-5.01c-67.44-67.44-67.44-177.16,0-244.6,32.37-32.38,85.06-32.38,117.44,0l3.8,3.8c-2.72,3.94-5.55,7.91-8.56,11.93-56.54,75.39-92.83,154.16-107.67,233.88Z"/><g><rect class="cls-1" x="481.91" y="397.79" width="126.53" height="126.53" transform="translate(-166.33 520.54) rotate(-45)"/><rect class="cls-1" x="593.76" y="509.63" width="126.53" height="126.53" transform="translate(-212.66 632.38) rotate(-45)"/><rect class="cls-1" x="370.07" y="509.63" width="126.53" height="126.53" transform="translate(-278.18 474.21) rotate(-45)"/><rect class="cls-1" x="481.91" y="621.47" width="126.53" height="126.53" transform="translate(-324.5 586.06) rotate(-45)"/><rect class="cls-1" x="370.07" y="733.31" width="126.53" height="126.53" transform="translate(-436.34 539.73) rotate(-45)"/><rect class="cls-1" x="593.76" y="733.31" width="126.53" height="126.53" transform="translate(-370.83 697.9) rotate(-45)"/><polygon class="cls-1" points="768.87 595.26 679.39 684.74 768.87 774.21 768.87 595.26"/><polygon class="cls-1" points="321.5 595.26 321.5 774.21 410.97 684.74 321.5 595.26"/><polygon class="cls-1" points="545.18 818.95 455.71 908.42 634.66 908.42 545.18 818.95"/></g></svg>